# xmcd
#
# Track frame offsets:
#	150
#	13488
#	25870
#	48320
#	61538
#	68990
#	81432
#	93241
#	109978
#	133691
#	156251
#	175082
#	195855
#	209992
#
# Disc length: 2994 seconds
#
# Revision: 0
# Processed by: cddbd v1.5.2PL0 Copyright (c) Steve Scherf et al.
# Submitted via: EasyCDDAExtractor 10.0.3.1
#
DISCID=c20bb00e
DTITLE=Johnny Cash - Live From Austin, Texas
DYEAR=2007
DGENRE=Country
TTITLE0=Ring Of Fire
TTITLE1=Folsom Prison Blues
TTITLE2=Sunday Morning Coming Down
TTITLE3=I Walk The Line
TTITLE4=The Wall
TTITLE5=Long Black Veil
TTITLE6=Big River
TTITLE7=I'll Go Somewhere And Sing My Songs Again
TTITLE8=Let Him Roll
TTITLE9=Ballad Of Barbara
TTITLE10=Sam Stone
TTITLE11=(Ghost) Riders In The Sky
TTITLE12=Where Did We Go Right  (With June Carter Cash)
TTITLE13=I Walk The Line (Outro)
EXTD=
EXTT0=
EXTT1=
EXTT2=
EXTT3=
EXTT4=
EXTT5=
EXTT6=
EXTT7=
EXTT8=
EXTT9=
EXTT10=
EXTT11=
EXTT12=
EXTT13=
PLAYORDER=
